# xmcd
#
# Track frame offsets: 
#        150
#        14525
#        34770
#        49177
#        68252
#        85152
#        98310
#        115925
#        132525
#        147310
#
# Disc length: 2347 seconds
#
# Revision: 2
# Processed by: cddbd v1.5.1PL0 Copyright (c) Steve Scherf et al.
# Submitted via: ExactAudioCopy v0.95a5
#
DISCID=7d09290a
DTITLE=Peter Rowan and The Nashville Bluegrass Band - New Moon Rising
DYEAR=1988
DGENRE=Bluegrass
TTITLE0=That High Lonesome Sound
TTITLE1=Trail of Tears
TTITLE2=Memories Of You
TTITLE3=A Moth To A Flame
TTITLE4=I'm Gonna Love You
TTITLE5=One Way
TTITLE6=New Moon Rising
TTITLE7=Jesus Made The Wine
TTITLE8=Cabin of Love
TTITLE9=Meadow Green
EXTD=
EXTT0=
EXTT1=
EXTT2=
EXTT3=
EXTT4=
EXTT5=
EXTT6=
EXTT7=
EXTT8=
EXTT9=
PLAYORDER=
